<svg xmlns="http://www.w3.org/2000/svg" xmlns:svg="http://www.w3.org/2000/svg" id="svg5" width="210mm" height="297mm" version="1.1" viewBox="0 0 210 297"><defs id="defs2"><marker style="overflow:visible" id="marker1772" orient="auto" refX="0" refY="0"><path transform="scale(0.8) translate(12.5,0)" style="fill-rule:evenodd;fill:context-stroke;stroke:context-stroke;stroke-width:1pt" id="path1770" d="M 0.0,0.0 L 5.0,-5.0 L -12.5,0.0 L 5.0,5.0 L 0.0,0.0 z"/></marker><marker style="overflow:visible" id="Arrow1Mend" orient="auto" refX="0" refY="0"><path transform="scale(0.4) rotate(180) translate(10,0)" style="fill-rule:evenodd;fill:context-stroke;stroke:context-stroke;stroke-width:1pt" id="path1109" d="M 0.0,0.0 L 5.0,-5.0 L -12.5,0.0 L 5.0,5.0 L 0.0,0.0 z"/></marker><marker style="overflow:visible" id="Arrow1Mstart" orient="auto" refX="0" refY="0"><path transform="scale(0.4) translate(10,0)" style="fill-rule:evenodd;fill:context-stroke;stroke:context-stroke;stroke-width:1pt" id="path1106" d="M 0.0,0.0 L 5.0,-5.0 L -12.5,0.0 L 5.0,5.0 L 0.0,0.0 z"/></marker><marker style="overflow:visible" id="Arrow1Lstart" orient="auto" refX="0" refY="0"><path transform="scale(0.8) translate(12.5,0)" style="fill-rule:evenodd;fill:context-stroke;stroke:context-stroke;stroke-width:1pt" id="path1100" d="M 0.0,0.0 L 5.0,-5.0 L -12.5,0.0 L 5.0,5.0 L 0.0,0.0 z"/></marker><marker style="overflow:visible" id="Arrow1Lend" orient="auto" refX="0" refY="0"><path transform="scale(0.8) rotate(180) translate(12.5,0)" style="fill-rule:evenodd;fill:context-stroke;stroke:context-stroke;stroke-width:1pt" id="path1103" d="M 0.0,0.0 L 5.0,-5.0 L -12.5,0.0 L 5.0,5.0 L 0.0,0.0 z"/></marker><marker style="overflow:visible" id="Arrow1Mstart-5" orient="auto" refX="0" refY="0"><path transform="matrix(0.4,0,0,0.4,4,0)" style="fill:context-stroke;fill-rule:evenodd;stroke:context-stroke;stroke-width:1pt" id="path1106-6" d="M 0,0 5,-5 -12.5,0 5,5 Z"/></marker><marker style="overflow:visible" id="Arrow1Mend-2" orient="auto" refX="0" refY="0"><path transform="matrix(-0.4,0,0,-0.4,-4,0)" style="fill:context-stroke;fill-rule:evenodd;stroke:context-stroke;stroke-width:1pt" id="path1109-9" d="M 0,0 5,-5 -12.5,0 5,5 Z"/></marker><marker style="overflow:visible" id="Arrow1Mstart-5-2" orient="auto" refX="0" refY="0"><path transform="matrix(0.4,0,0,0.4,4,0)" style="fill:context-stroke;fill-rule:evenodd;stroke:context-stroke;stroke-width:1pt" id="path1106-6-7" d="M 0,0 5,-5 -12.5,0 5,5 Z"/></marker><marker style="overflow:visible" id="Arrow1Mend-2-0" orient="auto" refX="0" refY="0"><path transform="matrix(-0.4,0,0,-0.4,-4,0)" style="fill:context-stroke;fill-rule:evenodd;stroke:context-stroke;stroke-width:1pt" id="path1109-9-9" d="M 0,0 5,-5 -12.5,0 5,5 Z"/></marker></defs><g id="layer1"><rect style="fill:none;fill-rule:evenodd;stroke-width:.264583;stroke:#fff;stroke-opacity:1" id="rect31" width="5.385" height="5.385" x="17.013" y="73.213"/><rect style="fill:none;fill-rule:evenodd;stroke:#fff;stroke-width:.264583;stroke-opacity:1" id="rect31-7" width="5.385" height="5.385" x="48.763" y="73.213"/><rect style="fill:none;fill-rule:evenodd;stroke:#fff;stroke-width:.264583;stroke-opacity:1" id="rect31-3" width="5.385" height="5.385" x="32.888" y="67.921"/><rect style="fill:none;fill-rule:evenodd;stroke:#fff;stroke-width:.264583;stroke-opacity:1" id="rect31-3-6" width="5.385" height="5.385" x="32.888" y="78.505"/><rect style="fill:none;fill-rule:evenodd;stroke:#fff;stroke-width:.264583;stroke-opacity:1" id="rect31-3-5" width="5.385" height="5.385" x="64.638" y="67.921"/><rect style="fill:none;fill-rule:evenodd;stroke:#fff;stroke-width:.264583;stroke-opacity:1" id="rect31-3-6-3" width="5.385" height="5.385" x="64.638" y="78.505"/><path style="fill:none;stroke:#fff;stroke-width:.265;stroke-linecap:butt;stroke-linejoin:miter;stroke-miterlimit:4;stroke-dasharray:none;stroke-opacity:1;marker-start:url(#Arrow1Mstart);marker-end:url(#Arrow1Mend)" id="path1098" d="m 32.35073,70.422846 -9.823034,5.45393 9.749113,5.364727"/><path style="fill:none;stroke:#fff;stroke-width:.265;stroke-linecap:butt;stroke-linejoin:miter;stroke-miterlimit:4;stroke-dasharray:none;stroke-opacity:1;marker-start:url(#Arrow1Mstart-5);marker-end:url(#Arrow1Mend-2)" id="path1098-1" d="m 64.100732,70.422846 -9.823034,5.45393 9.749113,5.364727"/><path style="fill:none;stroke:#fff;stroke-width:.265;stroke-linecap:butt;stroke-linejoin:miter;stroke-miterlimit:4;stroke-dasharray:none;stroke-opacity:1;marker-start:url(#Arrow1Mstart)" id="path2761" d="M 48.45094,75.876776 38.36162,81.241503"/><path style="fill:none;stroke:#fff;stroke-width:.265;stroke-linecap:butt;stroke-linejoin:miter;stroke-miterlimit:4;stroke-dasharray:none;stroke-opacity:1;marker-end:url(#Arrow1Mend)" id="path1098-1-3" d="m 38.330225,70.422846 10.120715,5.45393"/></g></svg>